# xmcd
#
# Track frame offsets: 
#        150
#        17810
#        35645
#        57630
#        77077
#        94585
#        109242
#        124460
#        143480
#        159230
#
# Disc length: 2496 seconds
#
# Revision: 0
# Processed by: cddbd v1.5.2PL0 Copyright (c) Steve Scherf et al.
# Submitted via: ExactAudioCopy v1.0b4
#
DISCID=8209be0a
DTITLE=EGO-WRAPPIN' -  ROUTE 20 HIT THE ROAD＜星盤＞
DYEAR=1900
DGENRE=Blues
TTITLE0=異邦人
TTITLE1=Move on up
TTITLE2=Inbetweenies
TTITLE3=曇り空
TTITLE4=Fever
TTITLE5=謎の女B
TTITLE6=What's Wrong With Groovin'
TTITLE7=ZIGGY STARDUST
TTITLE8=By This River
TTITLE9=さよなら人類
EXTD=
EXTT0=
EXTT1=
EXTT2=
EXTT3=
EXTT4=
EXTT5=
EXTT6=
EXTT7=
EXTT8=
EXTT9=
PLAYORDER=
